<?xml version="1.0" encoding="iso-8859-1"?>
<!-- Generator: Adobe Illustrator 19.0.0, SVG Export Plug-In . SVG Version: 6.00 Build 0)  -->
<svg version="1.1" id="Capa_1" xmlns="http://www.w3.org/2000/svg" xmlns:xlink="http://www.w3.org/1999/xlink" x="0px" y="0px"
	 viewBox="0 0 512 512" style="enable-background:new 0 0 512 512;" xml:space="preserve">
<g>
	<path style="fill:#F0C419;" d="M201.805,7.376l-7.598,45.589h-38.19c-13.452,0-24.766,10.084-26.308,23.447L80.584,502.161
		c-0.289,2.501,0.504,5.006,2.179,6.885c1.675,1.879,4.073,2.954,6.59,2.954h44.018c4.485,0,8.257-3.363,8.77-7.819l4.293-37.327
		c0.512-4.456,4.285-7.819,8.77-7.819h201.594c4.485,0,8.257,3.363,8.77,7.819l4.293,37.327c0.512,4.456,4.285,7.819,8.77,7.819
		h44.018c2.517,0,4.915-1.075,6.59-2.954c1.675-1.879,2.468-4.384,2.179-6.885L382.292,76.413
		c-1.542-13.363-12.857-23.447-26.308-23.447h-38.19l-7.598-45.589C309.485,3.12,305.803,0,301.487,0h-90.975
		C206.197,0,202.514,3.12,201.805,7.376z"/>
	<path style="fill:#E57E25;" d="M343.473,335.448H168.527c-3.732-0.277-7.034-2.52-8.667-5.888
		c-1.633-3.367-1.349-7.349,0.745-10.451l87.473-138.037c1.655-2.802,4.668-4.521,7.922-4.521c3.254,0,6.267,1.719,7.922,4.521
		l87.473,138.037c2.094,3.102,2.377,7.084,0.745,10.451C350.507,332.928,347.205,335.171,343.473,335.448z"/>
	<g>
		<path style="fill:#FFFFFF;" d="M256,141.241h-61.793c-4.875,0-8.828-3.952-8.828-8.828s3.952-8.828,8.828-8.828H256
			c4.875,0,8.828,3.952,8.828,8.828S260.875,141.241,256,141.241z"/>
		<path style="fill:#FFFFFF;" d="M273.655,388.414h-79.448c-4.875,0-8.828-3.952-8.828-8.828s3.952-8.828,8.828-8.828h79.448
			c4.875,0,8.828,3.952,8.828,8.828S278.53,388.414,273.655,388.414z"/>
		<path style="fill:#FFFFFF;" d="M308.965,141.241H291.31c-4.875,0-8.828-3.952-8.828-8.828s3.952-8.828,8.828-8.828h17.655
			c4.875,0,8.828,3.952,8.828,8.828S313.841,141.241,308.965,141.241z"/>
		<path style="fill:#FFFFFF;" d="M256,273.655c-4.875,0-8.828-3.952-8.828-8.828v-35.31c0-4.875,3.952-8.828,8.828-8.828
			s8.828,3.952,8.828,8.828v35.31C264.827,269.703,260.875,273.655,256,273.655z"/>
		<path style="fill:#FFFFFF;" d="M256,308.966c-0.593-0.016-1.183-0.075-1.767-0.177c-0.553-0.098-1.089-0.277-1.59-0.53
			c-0.562-0.195-1.095-0.463-1.586-0.797c-0.444-0.349-0.884-0.703-1.323-1.056c-0.353-0.444-0.707-0.884-1.06-1.323
			c-0.335-0.492-0.603-1.027-0.797-1.591c-0.254-0.501-0.431-1.037-0.526-1.59c-0.104-0.582-0.163-1.172-0.177-1.763
			c0.012-1.154,0.251-2.295,0.703-3.358c0.427-1.08,1.058-2.068,1.857-2.91c0.44-0.353,0.879-0.707,1.323-1.06
			c0.491-0.334,1.025-0.603,1.586-0.797c0.501-0.254,1.037-0.431,1.591-0.526c1.72-0.361,3.51-0.177,5.121,0.526
			c1.081,0.428,2.07,1.059,2.914,1.858c0.778,0.858,1.405,1.842,1.854,2.909c0.453,1.062,0.693,2.203,0.706,3.358
			c-0.016,0.591-0.075,1.18-0.177,1.763c-0.098,0.553-0.277,1.089-0.53,1.59c-0.194,0.563-0.462,1.098-0.797,1.591
			c-0.349,0.44-0.703,0.879-1.056,1.323c-0.846,0.796-1.834,1.425-2.914,1.854C258.293,308.711,257.153,308.951,256,308.966z"/>
		<path style="fill:#FFFFFF;" d="M308.965,388.414c-0.592-0.02-1.183-0.079-1.767-0.177c-0.553-0.098-1.089-0.277-1.59-0.53
			c-0.562-0.195-1.095-0.463-1.586-0.797c-0.444-0.349-0.884-0.703-1.323-1.056c-0.353-0.444-0.707-0.884-1.06-1.323
			c-0.335-0.492-0.603-1.027-0.797-1.591c-0.254-0.501-0.431-1.037-0.526-1.59c-0.236-1.165-0.236-2.365,0-3.53
			c0.095-0.553,0.272-1.09,0.526-1.59c0.195-0.562,0.463-1.095,0.797-1.586c0.353-0.444,0.707-0.884,1.06-1.323
			c0.44-0.353,0.879-0.707,1.323-1.06c0.491-0.334,1.025-0.603,1.586-0.797c0.501-0.254,1.037-0.431,1.59-0.526
			c2.906-0.549,5.898,0.338,8.035,2.383c0.353,0.44,0.707,0.879,1.056,1.323c0.334,0.491,0.603,1.025,0.797,1.586
			c0.253,0.501,0.432,1.037,0.53,1.59c0.236,1.165,0.236,2.365,0,3.53c-0.098,0.553-0.277,1.089-0.53,1.59
			c-0.194,0.563-0.462,1.098-0.797,1.591c-0.349,0.44-0.703,0.879-1.056,1.323C313.54,387.464,311.302,388.378,308.965,388.414z"/>
		<path style="fill:#FFFFFF;" d="M273.655,44.138h-35.31c-4.875,0-8.828-3.952-8.828-8.828s3.952-8.828,8.828-8.828h35.31
			c4.875,0,8.828,3.952,8.828,8.828S278.53,44.138,273.655,44.138z"/>
	</g>
</g>
<g>
</g>
<g>
</g>
<g>
</g>
<g>
</g>
<g>
</g>
<g>
</g>
<g>
</g>
<g>
</g>
<g>
</g>
<g>
</g>
<g>
</g>
<g>
</g>
<g>
</g>
<g>
</g>
<g>
</g>
</svg>
